<svg xmlns="http://www.w3.org/2000/svg" width="399.69659423828125" height="399.3887939453125" viewBox="-93.5356674194336 -90.109130859375 399.69659423828125 399.3887939453125"><title>Neo4j Graph Visualization</title><desc>Created using Neo4j (http://www.neo4j.com/)</desc><g class="layer relationships"><g class="relationship" transform="translate(166.07529675302897 280.2796584484523) rotate(318.18480479137537)"><path class="outline" fill="#A5ABB6" stroke="none" d="M 24.018736134675446,-6.953439040707552 L 24.277555179777966,-5.987513214418485 A 110.85677154720518 110.85677154720518 0 0 1 41.638479794596705,-9.184266369031164 L 41.536267552782036,-10.179028982735161 A 111.85677154720518 111.85677154720518 0 0 0 24.018736134675446,-6.953439040707552 Z M 60.93228195149037,-10.481074418778363 L 60.86109374440578,-9.483611517627608 A 110.85677154720518 110.85677154720518 0 0 1 78.31313926923997,-6.828985138631847 L 77.62728832894786,-3.9084357917280093 L 85.24206290206428,-5.715424502434232 L 79.22760718962945,-10.723050934503629 L 78.54175624933734,-7.802501587599792 A 111.85677154720518 111.85677154720518 0 0 0 60.93228195149037,-10.481074418778363"/><text text-anchor="middle" pointer-events="none" font-size="8px" fill="#000000" x="51.235500084466" y="-7.251366308839479" font-family="sans-serif">trek</text></g><g class="relationship" transform="translate(247.74516432889146 207.21938566184468) rotate(284.87309938126674)"><path class="outline" fill="#A5ABB6" stroke="none" d="M 21.40063509461097,-12.933012701892217 L 21.90063509461097,-12.06698729810778 A 67.31837912377287 67.31837912377287 0 0 1 31.11817880152296,-16.492118352715778 L 30.75510342488569,-17.423878123729587 A 68.31837912377287 68.31837912377287 0 0 0 21.40063509461097,-12.933012701892217 Z M 76.63307794200807,-18.754628180026188 L 76.32462136625513,-17.803389755195283 A 67.31837912377287 67.31837912377287 0 0 1 85.78316497662543,-13.91998279609196 L 84.43628137454589,-11.239329039552484 L 92.2625043422308,-11.224030017329584 L 87.57900977939816,-17.49418780481126 L 86.23212617731862,-14.813534048271785 A 68.31837912377287 68.31837912377287 0 0 0 76.63307794200807,-18.754628180026188"/><text text-anchor="middle" pointer-events="none" font-size="8px" fill="#000000" x="53.59349178293962" y="-18.557427939536282" font-family="sans-serif">twowheeler</text></g><g class="relationship" transform="translate(277.1609131183454 96.4576215234999) rotate(188.7426790432786)"><path class="outline" fill="#A5ABB6" stroke="none" d="M 21.40063509461097,12.933012701892217 L 21.90063509461097,12.06698729810778 A 68.84373354684708 68.84373354684708 0 0 0 31.833719209448827,16.787525457064703 L 31.47800371586768,17.72211974745295 A 69.84373354684708 69.84373354684708 0 0 1 21.40063509461097,12.933012701892217 Z M 77.38841264725926,19.03766455144725 L 77.08679774625894,18.084234715804087 A 68.84373354684708 68.84373354684708 0 0 0 87.27389180016041,13.940232389600936 L 85.92512459924747,11.260525868777908 L 93.75133488223297,11.239726674274563 L 89.07224806804435,17.513174417364972 L 87.7234808671314,14.833467896541944 A 69.84373354684708 69.84373354684708 0 0 1 77.38841264725926,19.03766455144725"/><text text-anchor="middle" pointer-events="none" font-size="8px" fill="#000000" x="54.33629957096358" y="24.761847616193023" transform="rotate(180 54.33629957096358 21.761847616193023)" font-family="sans-serif">twowheeler</text></g><g class="relationship" transform="translate(162.42745687898335 78.81346065212443) rotate(522.3436714414601)"><path class="outline" fill="#A5ABB6" stroke="none" d="M 25 0.5 L 56.62700255855471 0.5 L 56.62700255855471 -0.5 L 25 -0.5 Z M 75.96294005855471 0.5 L 107.58994261710941 0.5 L 107.58994261710941 3.5 L 114.58994261710941 0 L 107.58994261710941 -3.5 L 107.58994261710941 -0.5 L 75.96294005855471 -0.5 Z"/><text text-anchor="middle" pointer-events="none" font-size="8px" fill="#000000" x="66.29497130855471" y="3" transform="rotate(180 66.29497130855471 0)" font-family="sans-serif">trek</text></g><g class="relationship" transform="translate(166.07529675302897 280.2796584484523) rotate(318.18480479137537)"><path class="outline" fill="#A5ABB6" stroke="none" d="M 24.018736134675446,6.953439040707552 L 24.277555179777966,5.987513214418485 A 110.85677154720518 110.85677154720518 0 0 0 40.3144216404501,9.040175930947186 L 40.20026553507466,10.033638755417996 A 111.85677154720518 111.85677154720518 0 0 1 24.018736134675446,6.953439040707552 Z M 62.27216324946263,10.377354522606083 L 62.18899649803567,9.380818877755843 A 110.85677154720518 110.85677154720518 0 0 0 78.31313926923997,6.828985138631847 L 77.62728832894786,3.9084357917280093 L 85.24206290206428,5.715424502434232 L 79.22760718962945,10.723050934503629 L 78.54175624933734,7.802501587599792 A 111.85677154720518 111.85677154720518 0 0 1 62.27216324946263,10.377354522606083"/><text text-anchor="middle" pointer-events="none" font-size="8px" fill="#000000" x="51.235500084466054" y="13.25136630883948" font-family="sans-serif">road</text></g><g class="relationship" transform="translate(247.74516432889146 207.21938566184468) rotate(284.87309938126674)"><path class="outline" fill="#A5ABB6" stroke="none" d="M 25 0.5 L 44.132674073363205 0.5 L 44.132674073363205 -0.5 L 25 -0.5 Z M 63.468611573363205 0.5 L 82.60128564672641 0.5 L 82.60128564672641 3.5 L 89.60128564672641 0 L 82.60128564672641 -3.5 L 82.60128564672641 -0.5 L 63.468611573363205 -0.5 Z"/><text text-anchor="middle" pointer-events="none" font-size="8px" fill="#000000" x="53.800642823363205" y="3" font-family="sans-serif">trek</text></g><g class="relationship" transform="translate(247.74516432889146 207.21938566184468) rotate(284.87309938126674)"><path class="outline" fill="#A5ABB6" stroke="none" d="M 21.40063509461097,12.933012701892217 L 21.90063509461097,12.06698729810778 A 67.31837912377287 67.31837912377287 0 0 0 42.761379518373374,19.85813482208127 L 42.571261376720074,20.839896041632286 A 68.31837912377287 68.31837912377287 0 0 1 21.40063509461097,12.933012701892217 Z M 64.63878123079817,21.479993029287684 L 64.50588936932921,20.48886248634426 A 67.31837912377287 67.31837912377287 0 0 0 85.78316497662543,13.91998279609196 L 84.43628137454589,11.239329039552484 L 92.2625043422308,11.224030017329584 L 87.57900977939816,17.49418780481126 L 86.23212617731862,14.813534048271785 A 68.31837912377287 68.31837912377287 0 0 1 64.63878123079817,21.479993029287684"/><text text-anchor="middle" pointer-events="none" font-size="8px" fill="#000000" x="53.59349178293963" y="24.557427939536282" font-family="sans-serif">road</text></g><g class="relationship" transform="translate(277.1609131183454 96.4576215234999) rotate(188.7426790432786)"><path class="outline" fill="#A5ABB6" stroke="none" d="M 25 0.5 L 44.8731425278791 0.5 L 44.8731425278791 -0.5 L 25 -0.5 Z M 64.2090800278791 0.5 L 84.0822225557582 0.5 L 84.0822225557582 3.5 L 91.0822225557582 0 L 84.0822225557582 -3.5 L 84.0822225557582 -0.5 L 64.2090800278791 -0.5 Z"/><text text-anchor="middle" pointer-events="none" font-size="8px" fill="#000000" x="54.5411112778791" y="3" transform="rotate(180 54.5411112778791 0)" font-family="sans-serif">trek</text></g><g class="relationship" transform="translate(277.1609131183454 96.4576215234999) rotate(188.7426790432786)"><path class="outline" fill="#A5ABB6" stroke="none" d="M 21.40063509461097,-12.933012701892217 L 21.90063509461097,-12.06698729810778 A 68.84373354684708 68.84373354684708 0 0 1 43.49918310618091,-20.085475144918775 L 43.31291606194619,-21.06797429923499 A 69.84373354684708 69.84373354684708 0 0 0 21.40063509461097,-12.933012701892217 Z M 65.38132833915414,-21.7003360180572 L 65.25162698999812,-20.708782913061256 A 68.84373354684708 68.84373354684708 0 0 1 87.27389180016041,-13.940232389600936 L 85.92512459924747,-11.260525868777908 L 93.75133488223297,-11.239726674274563 L 89.07224806804435,-17.513174417364972 L 87.7234808671314,-14.833467896541944 A 69.84373354684708 69.84373354684708 0 0 0 65.38132833915414,-21.7003360180572"/><text text-anchor="middle" pointer-events="none" font-size="8px" fill="#000000" x="54.33629957096357" y="-18.761847616193023" transform="rotate(180 54.33629957096357 -21.761847616193023)" font-family="sans-serif">road</text></g><g class="relationship" transform="translate(166.07529675302897 280.2796584484523) rotate(255.54194247594057)"><path class="outline" fill="#A5ABB6" stroke="none" d="M 21.40063509461097,12.933012701892217 L 21.90063509461097,12.06698729810778 A 64.44675106320237 64.44675106320237 0 0 0 42.67854397687187,19.676739077076633 L 42.500948264744885,20.66084260975707 A 65.44675106320237 65.44675106320237 0 0 1 21.40063509461097,12.933012701892217 Z M 61.90531241401119,21.236988777106873 L 61.78641725632362,20.24408196301078 A 64.44675106320237 64.44675106320237 0 0 0 82.97921625150255,13.880506678078685 L 81.6360047560002,11.198011034400887 L 89.46224133600113,11.193429129186187 L 84.77016491217233,17.457167536315747 L 83.42695341666999,14.77467189263795 A 65.44675106320237 65.44675106320237 0 0 1 61.90531241401119,21.236988777106873"/><text text-anchor="middle" pointer-events="none" font-size="8px" fill="#000000" x="52.196488637218785" y="24.17260546969466" transform="rotate(180 52.196488637218785 21.17260546969466)" font-family="sans-serif">trek</text></g><g class="relationship" transform="translate(138.1579668426888 172.0044365792456) rotate(252.81138551875887)"><path class="outline" fill="#A5ABB6" stroke="none" d="M 24.018736134675446,-6.953439040707552 L 24.277555179777966,-5.987513214418485 A 175.2829579917463 175.2829579917463 0 0 1 57.879257780087485,-11.56486488149838 L 57.812138504234014,-12.562609840297426 A 176.2829579917463 176.2829579917463 0 0 0 24.018736134675446,-6.953439040707552 Z M 77.19186555798562,-12.798478734064332 L 77.14904949309754,-11.79939576224092 A 175.2829579917463 175.2829579917463 0 0 1 110.87654142963152,-7.0415015926569575 L 110.17084101964141,-4.125684909231918 L 117.79773042595495,-5.8808367499175525 L 111.81747530961832,-10.92925717055701 L 111.11177489962822,-8.013440487131971 A 176.2829579917463 176.2829579917463 0 0 0 77.19186555798562,-12.798478734064332"/><text text-anchor="middle" pointer-events="none" font-size="8px" fill="#000000" x="67.50484305136447" y="-9.447117164976873" transform="rotate(180 67.50484305136447 -12.447117164976873)" font-family="sans-serif">trek</text></g><g class="relationship" transform="translate(96.16595045632162 36.254661601431096) rotate(185.16707305831818)"><path class="outline" fill="#A5ABB6" stroke="none" d="M 24.018736134675446,-6.953439040707552 L 24.277555179777966,-5.987513214418485 A 95.693706305531 95.693706305531 0 0 1 24.612901226114378,-6.076717556510573 L 24.35758654989131,-7.043575568891455 A 96.693706305531 96.693706305531 0 0 0 24.018736134675446,-6.953439040707552 Z M 70.60478650292654,-7.813944069490404 L 70.3818156555096,-6.839118956353602 A 95.693706305531 95.693706305531 0 0 1 70.7199466927141,-6.761133142768378 L 70.04043373429403,-3.839102660494244 L 77.6512699777571,-5.662607986833906 L 71.62596397060753,-10.657173785800556 L 70.94645101218745,-7.7351433035264225 A 96.693706305531 96.693706305531 0 0 0 70.60478650292654,-7.813944069490404"/><text text-anchor="middle" pointer-events="none" font-size="8px" fill="#000000" x="47.442772471369274" y="-6.734854218228108" transform="rotate(180 47.442772471369274 -9.734854218228108)" font-family="sans-serif">twowheeler</text></g><g class="relationship" transform="translate(-5.4210719072404645 27.068379167487848) rotate(429.6830458911336)"><path class="outline" fill="#A5ABB6" stroke="none" d="M 24.018736134675446,6.953439040707552 L 24.277555179777966,5.987513214418485 A 92.32919124337724 92.32919124337724 0 0 0 37.023588088491906,8.457761362439328 L 36.90281891404314,9.45044197900387 A 93.32919124337724 93.32919124337724 0 0 1 24.018736134675446,6.953439040707552 Z M 56.30500308627628,9.778695286951034 L 56.21788248997114,8.782497514568746 A 92.32919124337724 92.32919124337724 0 0 0 69.0401820826349,6.744823846192401 L 68.36219259168975,3.822439502857673 L 75.97207713224012,5.6499124245428565 L 69.94416807056176,10.641336303972038 L 69.26617857961661,7.71895196063731 A 93.32919124337724 93.32919124337724 0 0 1 56.30500308627628,9.778695286951034"/><text text-anchor="middle" pointer-events="none" font-size="8px" fill="#000000" x="46.60381451422523" y="12.620271661173845" font-family="sans-serif">trek</text></g><g class="relationship" transform="translate(166.07529675302897 280.2796584484523) rotate(255.54194247594057)"><path class="outline" fill="#A5ABB6" stroke="none" d="M 25 0.5 L 41.4023264749914 0.5 L 41.4023264749914 -0.5 L 25 -0.5 Z M 63.4140452249914 0.5 L 79.8163716999828 0.5 L 79.8163716999828 3.5 L 86.8163716999828 0 L 79.8163716999828 -3.5 L 79.8163716999828 -0.5 L 63.4140452249914 -0.5 Z"/><text text-anchor="middle" pointer-events="none" font-size="8px" fill="#000000" x="52.4081858499914" y="3" transform="rotate(180 52.4081858499914 0)" font-family="sans-serif">road</text></g><g class="relationship" transform="translate(166.07529675302897 280.2796584484523) rotate(255.54194247594057)"><path class="outline" fill="#A5ABB6" stroke="none" d="M 21.40063509461097,-12.933012701892217 L 21.90063509461097,-12.06698729810778 A 64.44675106320237 64.44675106320237 0 0 1 22.950292146381134,-12.659986454102494 L 22.46657934526166,-13.535213239589062 A 65.44675106320237 65.44675106320237 0 0 0 21.40063509461097,-12.933012701892217 Z M 82.3271578929982,-15.312568201613132 L 81.89622516053069,-14.410184148070464 A 64.44675106320237 64.44675106320237 0 0 1 82.97921625150255,-13.880506678078685 L 81.6360047560002,-11.198011034400887 L 89.46224133600113,-11.193429129186187 L 84.77016491217233,-17.457167536315747 L 83.42695341666999,-14.77467189263795 A 65.44675106320237 65.44675106320237 0 0 0 82.3271578929982,-15.312568201613132"/><text text-anchor="middle" pointer-events="none" font-size="8px" fill="#000000" x="52.19648863721878" y="-18.17260546969466" transform="rotate(180 52.19648863721878 -21.17260546969466)" font-family="sans-serif">PublicTransport</text></g><g class="relationship" transform="translate(138.1579668426888 172.0044365792456) rotate(252.81138551875887)"><path class="outline" fill="#A5ABB6" stroke="none" d="M 24.018736134675446,6.953439040707552 L 24.277555179777966,5.987513214418485 A 175.2829579917463 175.2829579917463 0 0 0 44.43228825740416,10.13748604746587 L 44.28845319767331,11.12708772268283 A 176.2829579917463 176.2829579917463 0 0 1 24.018736134675446,6.953439040707552 Z M 90.7464829458369,11.692524173510861 L 90.62677562871282,10.699714948016378 A 175.2829579917463 175.2829579917463 0 0 0 110.87654142963152,7.0415015926569575 L 110.17084101964141,4.125684909231918 L 117.79773042595495,5.8808367499175525 L 111.81747530961832,10.92925717055701 L 111.11177489962822,8.013440487131971 A 176.2829579917463 176.2829579917463 0 0 1 90.7464829458369,11.692524173510861"/><text text-anchor="middle" pointer-events="none" font-size="8px" fill="#000000" x="67.50484305136453" y="15.447117164976873" transform="rotate(180 67.50484305136453 12.447117164976873)" font-family="sans-serif">twowheeler</text></g><g class="relationship" transform="translate(96.16595045632162 36.254661601431096) rotate(185.16707305831818)"><path class="outline" fill="#A5ABB6" stroke="none" d="M 24.018736134675446,6.953439040707552 L 24.277555179777966,5.987513214418485 A 95.693706305531 95.693706305531 0 0 0 37.85894252658275,8.592165428607004 L 37.74204908841035,9.585309891468398 A 96.693706305531 96.693706305531 0 0 1 24.018736134675446,6.953439040707552 Z M 57.14309462741895,9.908485226993903 L 57.05934371881551,8.911998505904208 A 95.693706305531 95.693706305531 0 0 0 70.7199466927141,6.761133142768378 L 70.04043373429403,3.839102660494244 L 77.6512699777571,5.662607986833906 L 71.62596397060753,10.657173785800556 L 70.94645101218745,7.7351433035264225 A 96.693706305531 96.693706305531 0 0 1 57.14309462741895,9.908485226993903"/><text text-anchor="middle" pointer-events="none" font-size="8px" fill="#000000" x="47.4427724713693" y="12.734854218228108" transform="rotate(180 47.4427724713693 9.734854218228108)" font-family="sans-serif">trek</text></g><g class="relationship" transform="translate(-5.4210719072404645 27.068379167487848) rotate(429.6830458911336)"><path class="outline" fill="#A5ABB6" stroke="none" d="M 24.018736134675446,-6.953439040707552 L 24.277555179777966,-5.987513214418485 A 92.32919124337724 92.32919124337724 0 0 1 26.368428238255394,-6.521651468119785 L 26.13225504361815,-7.493362444766049 A 93.32919124337724 93.32919124337724 0 0 0 24.018736134675446,-6.953439040707552 Z M 67.1356052157342,-8.187072246272606 L 66.93243730363037,-7.207928334740004 A 92.32919124337724 92.32919124337724 0 0 1 69.0401820826349,-6.744823846192401 L 68.36219259168975,-3.822439502857673 L 75.97207713224012,-5.6499124245428565 L 69.94416807056176,-10.641336303972038 L 69.26617857961661,-7.71895196063731 A 93.32919124337724 93.32919124337724 0 0 0 67.1356052157342,-8.187072246272606"/><text text-anchor="middle" pointer-events="none" font-size="8px" fill="#000000" x="46.603814514225235" y="-6.620271661173845" font-family="sans-serif">twowhe…</text></g><g class="relationship" transform="translate(138.1579668426888 172.0044365792456) rotate(284.59715516822814)"><path class="outline" fill="#A5ABB6" stroke="none" d="M 25 0.5 L 34.98170970393954 0.5 L 34.98170970393954 -0.5 L 25 -0.5 Z M 54.31764720393954 0.5 L 64.29935690787909 0.5 L 64.29935690787909 3.5 L 71.29935690787909 0 L 64.29935690787909 -3.5 L 64.29935690787909 -0.5 L 54.31764720393954 -0.5 Z"/><text text-anchor="middle" pointer-events="none" font-size="8px" fill="#000000" x="44.64967845393954" y="3" font-family="sans-serif">trek</text></g><g class="relationship" transform="translate(138.1579668426888 172.0044365792456) rotate(377.81438356219167)"><path class="outline" fill="#A5ABB6" stroke="none" d="M 25 0.5 L 44.38515126049558 0.5 L 44.38515126049558 -0.5 L 25 -0.5 Z M 63.72108876049558 0.5 L 83.10624002099117 0.5 L 83.10624002099117 3.5 L 90.10624002099117 0 L 83.10624002099117 -3.5 L 83.10624002099117 -0.5 L 63.72108876049558 -0.5 Z"/><text text-anchor="middle" pointer-events="none" font-size="8px" fill="#000000" x="54.05312001049558" y="3" font-family="sans-serif">trek</text></g><g class="relationship" transform="translate(96.16595045632162 36.254661601431096) rotate(232.7566804305976)"><path class="outline" fill="#A5ABB6" stroke="none" d="M 24.018736134675446,-6.953439040707552 L 24.277555179777966,-5.987513214418485 A 136.17184107889048 136.17184107889048 0 0 1 34.60384260092832,-8.328258263070069 L 34.42085632227248,-9.31137373025777 A 137.17184107889048 137.17184107889048 0 0 0 24.018736134675446,-6.953439040707552 Z M 80.82684966600335,-9.962783536201897 L 80.67153040775938,-8.97491920947553 A 136.17184107889048 136.17184107889048 0 0 1 91.05945121662867,-6.924943464337358 L 90.36463729822049,-4.006513472237792 L 97.98492351792902,-5.790115986734859 L 91.98586977450626,-10.816183453803445 L 91.29105585609807,-7.897753461703879 A 137.17184107889048 137.17184107889048 0 0 0 80.82684966600335,-9.962783536201897"/><text text-anchor="middle" pointer-events="none" font-size="8px" fill="#000000" x="57.60312126359546" y="-8.11399307445896" transform="rotate(180 57.60312126359546 -11.11399307445896)" font-family="sans-serif">twowheeler</text></g><g class="relationship" transform="translate(22.146715937225398 -61.109132358918274) rotate(467.36131472729414)"><path class="outline" fill="#A5ABB6" stroke="none" d="M 21.40063509461097,12.933012701892217 L 21.90063509461097,12.06698729810778 A 44.26636648413885 44.26636648413885 0 0 0 31.74153589939928,16.25660525107252 L 31.46384691307406,17.217276280548106 A 45.26636648413885 45.26636648413885 0 0 1 21.40063509461097,12.933012701892217 Z M 53.4839639077704,18.000125262993137 L 53.27519642089024,17.022159958689485 A 44.26636648413885 44.26636648413885 0 0 0 63.38877123731836,13.541954264481403 L 62.077056196900045,10.843917264597895 L 69.90281007711626,10.930958670152599 L 65.13772462454277,17.139336930992744 L 63.826009584124456,14.441299931109237 A 45.26636648413885 45.26636648413885 0 0 1 53.4839639077704,18.000125262993137"/><text text-anchor="middle" pointer-events="none" font-size="8px" fill="#000000" x="42.44331005987175" y="21.469292295452647" transform="rotate(180 42.44331005987175 18.469292295452647)" font-family="sans-serif">road</text></g><g class="relationship" transform="translate(96.16595045632162 36.254661601431096) rotate(232.7566804305976)"><path class="outline" fill="#A5ABB6" stroke="none" d="M 24.018736134675446,6.953439040707552 L 24.277555179777966,5.987513214418485 A 136.17184107889048 136.17184107889048 0 0 0 47.99129924839756,10.13843123634308 L 47.906625928877766,11.134840002343026 A 137.17184107889048 137.17184107889048 0 0 1 24.018736134675446,6.953439040707552 Z M 67.2952109537748,11.407001279336896 L 67.23853904622466,10.408608423345527 A 136.17184107889048 136.17184107889048 0 0 0 91.05945121662867,6.924943464337358 L 90.36463729822049,4.006513472237792 L 97.98492351792902,5.790115986734859 L 91.98586977450626,10.816183453803445 L 91.29105585609807,7.897753461703879 A 137.17184107889048 137.17184107889048 0 0 1 67.2952109537748,11.407001279336896"/><text text-anchor="middle" pointer-events="none" font-size="8px" fill="#000000" x="57.60312126359552" y="14.11399307445896" transform="rotate(180 57.60312126359552 11.11399307445896)" font-family="sans-serif">trek</text></g><g class="relationship" transform="translate(22.146715937225398 -61.109132358918274) rotate(467.36131472729414)"><path class="outline" fill="#A5ABB6" stroke="none" d="M 25 0.5 L 26.579944621406092 0.5 L 26.579944621406092 -0.5 L 25 -0.5 Z M 58.80650712140609 0.5 L 60.386451742812184 0.5 L 60.386451742812184 3.5 L 67.38645174281218 0 L 60.386451742812184 -3.5 L 60.386451742812184 -0.5 L 58.80650712140609 -0.5 Z"/><text text-anchor="middle" pointer-events="none" font-size="8px" fill="#000000" x="42.69322587140609" y="3" transform="rotate(180 42.69322587140609 0)" font-family="sans-serif">twow…</text></g><g class="relationship" transform="translate(22.146715937225398 -61.109132358918274) rotate(467.36131472729414)"><path class="outline" fill="#A5ABB6" stroke="none" d="M 21.40063509461097,-12.933012701892217 L 21.90063509461097,-12.06698729810778 A 44.26636648413885 44.26636648413885 0 0 1 33.017753323550295,-16.604928593634526 L 32.76889474562574,-17.573468426678765 A 45.26636648413885 45.26636648413885 0 0 0 21.40063509461097,-12.933012701892217 Z M 52.15691645545493,-18.262742378802535 L 51.97746538063494,-17.278975479712138 A 44.26636648413885 44.26636648413885 0 0 1 63.38877123731836,-13.541954264481403 L 62.077056196900045,-10.843917264597895 L 69.90281007711626,-10.930958670152599 L 65.13772462454277,-17.139336930992744 L 63.826009584124456,-14.441299931109237 A 45.26636648413885 45.26636648413885 0 0 0 52.15691645545493,-18.262742378802535"/><text text-anchor="middle" pointer-events="none" font-size="8px" fill="#000000" x="42.44331005987175" y="-15.469292295452647" transform="rotate(180 42.44331005987175 -18.469292295452647)" font-family="sans-serif">trek</text></g><g class="relationship" transform="translate(22.146715937225398 -61.109132358918274) rotate(491.3793146452956)"><path class="outline" fill="#A5ABB6" stroke="none" d="M 25 0.5 L 52.39709014945433 0.5 L 52.39709014945433 -0.5 L 25 -0.5 Z M 71.73302764945433 0.5 L 99.13011779890866 0.5 L 99.13011779890866 3.5 L 106.13011779890866 0 L 99.13011779890866 -3.5 L 99.13011779890866 -0.5 L 71.73302764945433 -0.5 Z"/><text text-anchor="middle" pointer-events="none" font-size="8px" fill="#000000" x="62.06505889945433" y="3" transform="rotate(180 62.06505889945433 0)" font-family="sans-serif">trek</text></g><g class="relationship" transform="translate(-64.53566976706671 37.2843217046931) rotate(401.7551471228754)"><path class="outline" fill="#A5ABB6" stroke="none" d="M 25 0.5 L 49.80063966569511 0.5 L 49.80063966569511 -0.5 L 25 -0.5 Z M 69.13657716569512 0.5 L 93.93721683139022 0.5 L 93.93721683139022 3.5 L 100.93721683139022 0 L 93.93721683139022 -3.5 L 93.93721683139022 -0.5 L 69.13657716569512 -0.5 Z"/><text text-anchor="middle" pointer-events="none" font-size="8px" fill="#000000" x="59.46860841569511" y="3" font-family="sans-serif">trek</text></g></g><g class="layer nodes"><g class="node" transform="translate(166.07529675302897,280.2796584484523)"><circle class="outline" cx="0" cy="0" r="25" fill="#F16667" stroke="#eb2728" stroke-width="2px"/><text text-anchor="middle" pointer-events="none" font-family="sans-serif" dy="1.5625" font-size="25" fill="#FFFFFF"/><text text-anchor="middle" pointer-events="none" y="5" font-size="10px" fill="#FFFFFF" font-family="sans-serif"> Darjeeling</text></g><g class="node" transform="translate(247.74516432889146,207.21938566184468)"><circle class="outline" cx="0" cy="0" r="25" fill="#D9C8AE" stroke="#c0a378" stroke-width="2px"/><text text-anchor="middle" pointer-events="none" font-family="sans-serif" dy="1.5625" font-size="25" fill="#604A0E"/><text text-anchor="middle" pointer-events="none" y="5" font-size="10px" fill="#604A0E" font-family="sans-serif"> Tumbling</text></g><g class="node" transform="translate(277.1609131183454,96.4576215234999)"><circle class="outline" cx="0" cy="0" r="25" fill="#D9C8AE" stroke="#c0a378" stroke-width="2px"/><text text-anchor="middle" pointer-events="none" font-family="sans-serif" dy="1.5625" font-size="25" fill="#604A0E"/><text text-anchor="middle" pointer-events="none" y="5" font-size="10px" fill="#604A0E" font-family="sans-serif"> Gairibus</text></g><g class="node" transform="translate(162.42745687898335,78.81346065212443)"><circle class="outline" cx="0" cy="0" r="25" fill="#D9C8AE" stroke="#c0a378" stroke-width="2px"/><text text-anchor="middle" pointer-events="none" font-family="sans-serif" dy="1.5625" font-size="25" fill="#604A0E"/><text text-anchor="middle" pointer-events="none" y="5" font-size="10px" fill="#604A0E" font-family="sans-serif"> BhikeBh…</text></g><g class="node" transform="translate(29.41318583050138,121.15204562244286)"><circle class="outline" cx="0" cy="0" r="25" fill="#8DCC93" stroke="#5db665" stroke-width="2px"/><text text-anchor="middle" pointer-events="none" font-family="sans-serif" dy="1.5625" font-size="25" fill="#604A0E"/><text text-anchor="middle" pointer-events="none" y="5" font-size="10px" fill="#604A0E" font-family="sans-serif"> Sandak…</text></g><g class="node" transform="translate(138.1579668426888,172.0044365792456)"><circle class="outline" cx="0" cy="0" r="25" fill="#F16667" stroke="#eb2728" stroke-width="2px"/><text text-anchor="middle" pointer-events="none" font-family="sans-serif" dy="1.5625" font-size="25" fill="#FFFFFF"/><text text-anchor="middle" pointer-events="none" y="5" font-size="10px" fill="#FFFFFF" font-family="sans-serif"> Rimbik</text></g><g class="node" transform="translate(96.16595045632162,36.254661601431096)"><circle class="outline" cx="0" cy="0" r="25" fill="#D9C8AE" stroke="#c0a378" stroke-width="2px"/><text text-anchor="middle" pointer-events="none" font-family="sans-serif" dy="1.5625" font-size="25" fill="#604A0E"/><text text-anchor="middle" pointer-events="none" y="5" font-size="10px" fill="#604A0E" font-family="sans-serif"> Sirikhola</text></g><g class="node" transform="translate(-5.4210719072404645,27.068379167487848)"><circle class="outline" cx="0" cy="0" r="25" fill="#D9C8AE" stroke="#c0a378" stroke-width="2px"/><text text-anchor="middle" pointer-events="none" font-family="sans-serif" dy="1.5625" font-size="25" fill="#604A0E"/><text text-anchor="middle" pointer-events="none" y="5" font-size="10px" fill="#604A0E" font-family="sans-serif"> Gurdum</text></g><g class="node" transform="translate(22.146715937225398,-61.109132358918274)"><circle class="outline" cx="0" cy="0" r="25" fill="#D9C8AE" stroke="#c0a378" stroke-width="2px"/><text text-anchor="middle" pointer-events="none" font-family="sans-serif" dy="1.5625" font-size="25" fill="#604A0E"/><text text-anchor="middle" pointer-events="none" y="5" font-size="10px" fill="#604A0E" font-family="sans-serif"> Rammam</text></g><g class="node" transform="translate(-64.53566976706671,37.2843217046931)"><circle class="outline" cx="0" cy="0" r="25" fill="#8DCC93" stroke="#5db665" stroke-width="2px"/><text text-anchor="middle" pointer-events="none" font-family="sans-serif" dy="1.5625" font-size="25" fill="#604A0E"/><text text-anchor="middle" pointer-events="none" y="5" font-size="10px" fill="#604A0E" font-family="sans-serif"> Sabargr…</text></g></g></svg>