<svg xmlns="http://www.w3.org/2000/svg" width="198.6988525390625" height="211.6569061279297" viewBox="24.318199157714844 -19.833721160888672 198.6988525390625 211.6569061279297"><title>Neo4j Graph Visualization</title><desc>Created using Neo4j (http://www.neo4j.com/)</desc><g class="layer relationships"><g class="relationship" transform="translate(134.09017338105306 162.82318472970792) rotate(283.4244182971721)"><path class="outline" fill="#A5ABB6" stroke="none" d="M 5.987513214418485,24.277555179777966 L 6.953439040707552,24.018736134675446 A 45.89014220988936 45.89014220988936 0 0 0 31.995046053611553,53.78280787318502 L 31.57480620271934,54.69022093663634 A 46.89014220988936 46.89014220988936 0 0 1 5.987513214418485,24.277555179777966 Z M 65.53073748079608,56.81362589107681 L 65.22681805901891,55.86092815041263 A 45.89014220988936 45.89014220988936 0 0 0 93.78137751146063,29.448446579745394 L 91.00290726329149,28.317030175392475 L 96.88442749631231,23.153918734742877 L 97.4860045090195,30.957001785549288 L 94.70753426085035,29.82558538119637 A 46.89014220988936 46.89014220988936 0 0 1 65.53073748079608,56.81362589107681"/><text text-anchor="middle" pointer-events="none" font-size="8px" fill="#000000" x="48.38460049612839" y="61.441195963206624" font-family="sans-serif">FLIGHT</text></g><g class="relationship" transform="translate(158.7720371755066 59.415071985076935) rotate(187.30167471348256)"><path class="outline" fill="#A5ABB6" stroke="none" d="M 5.987513214418485,-24.277555179777966 L 6.953439040707552,-24.018736134675446 A 45.89179596503352 45.89179596503352 0 0 1 31.99657363398287,-53.7841700014758 L 31.576347405337714,-54.69158937351867 A 46.89179596503352 46.89179596503352 0 0 0 5.987513214418485,-24.277555179777966 Z M 65.53232568035305,-56.81493666658306 L 65.22841717335413,-55.8622354440722 A 45.89179596503352 45.89179596503352 0 0 1 93.78456808855535,-29.448491134640644 L 91.00609381771936,-28.317084608982206 L 96.88759569356436,-23.15395225696644 L 97.48920044966998,-30.957033168851893 L 94.710726178834,-29.825626643193456 A 46.89179596503352 46.89179596503352 0 0 0 65.53232568035305,-56.81493666658306"/><text text-anchor="middle" pointer-events="none" font-size="8px" fill="#000000" x="48.38617699726304" y="-55.44242361812225" transform="rotate(180 48.38617699726304 -58.44242361812225)" font-family="sans-serif">FLIGHT</text></g><g class="relationship" transform="translate(134.09017338105306 162.82318472970792) rotate(283.4244182971721)"><path class="outline" fill="#A5ABB6" stroke="none" d="M 17.324116139070416,18.03122292025696 L 18.031222920256962,17.324116139070412 A 47.02074783849259 47.02074783849259 0 0 0 32.67156858108584,27.257370179616913 L 32.2758210686016,28.17572953540447 A 48.02074783849259 48.02074783849259 0 0 1 17.324116139070416,18.03122292025696 Z M 66.29289568723742,29.689049023462758 L 65.98026034127378,28.739175800103872 A 47.02074783849259 47.02074783849259 0 0 0 81.44482787376721,20.145200704984386 L 79.52025733711432,17.843890589105264 L 87.13531323359398,16.03808780544081 L 84.01092192263775,23.213614192823215 L 82.08635138598486,20.912304076944093 A 48.02074783849259 48.02074783849259 0 0 1 66.29289568723742,29.689049023462758"/><text text-anchor="middle" pointer-events="none" font-size="8px" fill="#000000" x="49.167943288862844" y="34.54921989743942" font-family="sans-serif">FLIGHT</text></g><g class="relationship" transform="translate(134.09017338105306 162.82318472970792) rotate(283.4244182971721)"><path class="outline" fill="#A5ABB6" stroke="none" d="M 24.018736134675446,6.953439040707552 L 24.277555179777966,5.987513214418485 A 104.32909750843066 104.32909750843066 0 0 0 32.56970720600867,7.851001313996463 L 32.390368883199955,8.834788773751939 A 105.32909750843066 105.32909750843066 0 0 1 24.018736134675446,6.953439040707552 Z M 66.8400647845079,9.386758748824292 L 66.69233587977723,8.39773085705022 A 104.32909750843066 104.32909750843066 0 0 0 75.03993159196862,6.800852981571161 L 74.35670841877676,3.8796877867193453 L 81.96985424215484,5.693526443265467 L 75.9508958228911,10.695739908040249 L 75.26767264969924,7.774574713188434 A 105.32909750843066 105.32909750843066 0 0 1 66.8400647845079,9.386758748824292"/><text text-anchor="middle" pointer-events="none" font-size="8px" fill="#000000" x="49.600504758092136" y="13.028987720307228" font-family="sans-serif">FLIGHT</text></g><g class="relationship" transform="translate(158.7720371755066 59.415071985076935) rotate(187.30167471348256)"><path class="outline" fill="#A5ABB6" stroke="none" d="M 10.396609043987748,-22.74116356711926 L 11.29757791189017,-22.307279828001697 A 44.378816505968636 44.378816505968636 0 0 1 32.323876707394106,-43.17792855413806 L 31.896699176236236,-44.08209632445166 A 45.378816505968636 45.378816505968636 0 0 0 10.396609043987748,-22.74116356711926 Z M 65.82078505223244,-46.03861772701931 L 65.50038720597749,-45.091334654165586 A 44.378816505968636 44.378816505968636 0 0 1 88.78665948799919,-26.77634782656624 L 86.25131813849522,-25.17258841770985 L 92.95132166691477,-21.127844579199714 L 92.16711462067114,-28.914693705041426 L 89.63177327116718,-27.310934296185035 A 45.378816505968636 45.378816505968636 0 0 0 65.82078505223244,-46.03861772701931"/><text text-anchor="middle" pointer-events="none" font-size="8px" fill="#000000" x="48.697484682915785" y="-44.856396435789314" transform="rotate(180 48.697484682915785 -47.856396435789314)" font-family="sans-serif">FLIGHT</text></g><g class="relationship" transform="translate(158.7720371755066 59.415071985076935) rotate(187.30167471348256)"><path class="outline" fill="#A5ABB6" stroke="none" d="M 14.44320574945421,-20.411854586953456 L 15.247803529220876,-19.818034401379958 A 44.78474506771666 44.78474506771666 0 0 1 32.560876490142476,-33.908236559608206 L 32.14286286832387,-34.81667731825683 A 45.78474506771666 45.78474506771666 0 0 0 14.44320574945421,-20.411854586953456 Z M 66.09090936051827,-36.54743629386277 L 65.76745229287505,-35.601193446919325 A 44.78474506771666 44.78474506771666 0 0 1 84.42374254364614,-23.344802204432057 L 82.20364064184376,-21.32709371567223 L 89.5017460010528,-18.500849181686476 L 87.38387841271599,-26.035080189445157 L 85.1637765109136,-24.01737170068533 A 45.78474506771666 45.78474506771666 0 0 0 66.09090936051827,-36.54743629386277"/><text text-anchor="middle" pointer-events="none" font-size="8px" fill="#000000" x="48.97577148737108" y="-35.449955737882256" transform="rotate(180 48.97577148737108 -38.449955737882256)" font-family="sans-serif">FLIGHT</text></g><g class="relationship" transform="translate(158.7720371755066 59.415071985076935) rotate(187.30167471348256)"><path class="outline" fill="#A5ABB6" stroke="none" d="M 17.9862104268602,-17.370844380187897 L 18.666383164631117,-16.637792508358068 A 47.951240916209045 47.951240916209045 0 0 1 32.68974448307677,-25.687359637567923 L 32.30202218142596,-26.609135866813716 A 48.951240916209045 48.951240916209045 0 0 0 17.9862104268602,-17.370844380187897 Z M 66.34349153881732,-28.063441966951373 L 66.03579797929189,-27.11195645816705 A 47.951240916209045 47.951240916209045 0 0 1 80.77987883211219,-19.291380539524518 L 78.9343560704258,-16.926207028744066 L 86.60620415088096,-15.379356347386395 L 83.24057584769402,-22.444945220565117 L 81.39505308600764,-20.079771709784666 A 48.951240916209045 48.951240916209045 0 0 0 66.34349153881732,-28.063441966951373"/><text text-anchor="middle" pointer-events="none" font-size="8px" fill="#000000" x="49.21348171009607" y="-26.89413191208677" transform="rotate(180 49.21348171009607 -29.89413191208677)" font-family="sans-serif">FLIGHT</text></g><g class="relationship" transform="translate(158.7720371755066 59.415071985076935) rotate(187.30167471348256)"><path class="outline" fill="#A5ABB6" stroke="none" d="M 20.90208894244944,-13.724164012497553 L 21.434121018964774,-12.87743981326927 A 56.10073203602565 56.10073203602565 0 0 1 32.707509445627466,-18.312334268144 L 32.376426412333586,-19.2559358922762 A 57.10073203602565 57.10073203602565 0 0 0 20.90208894244944,-13.724164012497553 Z M 66.57344598435759,-20.39059301497098 L 66.30563968028801,-19.427120242392235 A 56.10073203602565 56.10073203602565 0 0 1 77.91449635923516,-14.75145868901774 L 76.49029107271534,-12.111072485855598 L 84.31276504770014,-11.86837738766518 L 79.8134367412616,-18.271973626567263 L 78.38923145474178,-15.63158742340512 A 57.10073203602565 57.10073203602565 0 0 0 66.57344598435759,-20.39059301497098"/><text text-anchor="middle" pointer-events="none" font-size="8px" fill="#000000" x="49.40453057792598" y="-18.94519391699447" transform="rotate(180 49.40453057792598 -21.94519391699447)" font-family="sans-serif">FLIGHT</text></g><g class="relationship" transform="translate(158.7720371755066 59.415071985076935) rotate(463.4244182971721)"><path class="outline" fill="#A5ABB6" stroke="none" d="M 24.018736134675446,6.953439040707552 L 24.277555179777966,5.987513214418485 A 104.32909750843066 104.32909750843066 0 0 0 32.56970720600867,7.851001313996463 L 32.390368883199955,8.834788773751939 A 105.32909750843066 105.32909750843066 0 0 1 24.018736134675446,6.953439040707552 Z M 66.8400647845079,9.386758748824292 L 66.69233587977723,8.39773085705022 A 104.32909750843066 104.32909750843066 0 0 0 75.03993159196862,6.800852981571161 L 74.35670841877676,3.8796877867193453 L 81.96985424215484,5.693526443265467 L 75.9508958228911,10.695739908040249 L 75.26767264969924,7.774574713188434 A 105.32909750843066 105.32909750843066 0 0 1 66.8400647845079,9.386758748824292"/><text text-anchor="middle" pointer-events="none" font-size="8px" fill="#000000" x="49.600504758092136" y="13.028987720307228" transform="rotate(180 49.600504758092136 10.028987720307228)" font-family="sans-serif">FLIGHT</text></g><g class="relationship" transform="translate(158.7720371755066 59.415071985076935) rotate(463.4244182971721)"><path class="outline" fill="#A5ABB6" stroke="none" d="M 17.324116139070416,18.03122292025696 L 18.031222920256962,17.324116139070412 A 47.02074783849259 47.02074783849259 0 0 0 32.67156858108584,27.257370179616913 L 32.2758210686016,28.17572953540447 A 48.02074783849259 48.02074783849259 0 0 1 17.324116139070416,18.03122292025696 Z M 66.29289568723742,29.689049023462758 L 65.98026034127378,28.739175800103872 A 47.02074783849259 47.02074783849259 0 0 0 81.44482787376721,20.145200704984386 L 79.52025733711432,17.843890589105264 L 87.13531323359398,16.03808780544081 L 84.01092192263775,23.213614192823215 L 82.08635138598486,20.912304076944093 A 48.02074783849259 48.02074783849259 0 0 1 66.29289568723742,29.689049023462758"/><text text-anchor="middle" pointer-events="none" font-size="8px" fill="#000000" x="49.167943288862844" y="34.54921989743942" transform="rotate(180 49.167943288862844 31.54921989743942)" font-family="sans-serif">FLIGHT</text></g><g class="relationship" transform="translate(158.7720371755066 59.415071985076935) rotate(463.4244182971721)"><path class="outline" fill="#A5ABB6" stroke="none" d="M 5.987513214418485,24.277555179777966 L 6.953439040707552,24.018736134675446 A 45.89014220988936 45.89014220988936 0 0 0 31.995046053611553,53.78280787318502 L 31.57480620271934,54.69022093663634 A 46.89014220988936 46.89014220988936 0 0 1 5.987513214418485,24.277555179777966 Z M 65.53073748079608,56.81362589107681 L 65.22681805901891,55.86092815041263 A 45.89014220988936 45.89014220988936 0 0 0 93.78137751146063,29.448446579745394 L 91.00290726329149,28.317030175392475 L 96.88442749631231,23.153918734742877 L 97.4860045090195,30.957001785549288 L 94.70753426085035,29.82558538119637 A 46.89014220988936 46.89014220988936 0 0 1 65.53073748079608,56.81362589107681"/><text text-anchor="middle" pointer-events="none" font-size="8px" fill="#000000" x="48.38460049612839" y="61.441195963206624" transform="rotate(180 48.38460049612839 58.441195963206624)" font-family="sans-serif">FLIGHT</text></g><g class="relationship" transform="translate(158.7720371755066 59.415071985076935) rotate(187.30167471348256)"><path class="outline" fill="#A5ABB6" stroke="none" d="M 23.08917320392191,-9.598962483481976 L 23.454514228288303,-8.668088734837774 A 76.16718050783801 76.16718050783801 0 0 1 32.6365250528881,-11.615934120929865 L 32.391734779690125,-12.58551017372183 A 77.16718050783801 77.16718050783801 0 0 0 23.08917320392191,-9.598962483481976 Z M 66.76199958602643,-13.36452673495694 L 66.56138982542579,-12.384855502373398 A 76.16718050783801 76.16718050783801 0 0 1 75.8675312115214,-9.856051890905968 L 74.89916054047355,-7.016640289278913 L 82.6542200604925,-8.06975559206548 L 77.15869210625188,-13.64193402640871 L 76.19032143520403,-10.802522424781655 A 77.16718050783801 77.16718050783801 0 0 0 66.76199958602643,-13.36452673495694"/><text text-anchor="middle" pointer-events="none" font-size="8px" fill="#000000" x="49.54426214024615" y="-11.413555199725053" transform="rotate(180 49.54426214024615 -14.413555199725053)" font-family="sans-serif">FLIGHT</text></g><g class="relationship" transform="translate(158.7720371755066 59.415071985076935) rotate(187.30167471348256)"><path class="outline" fill="#A5ABB6" stroke="none" d="M 24.471206027250748,-5.139073415689509 L 24.657117634413662,-4.15650694245622 A 143.2099520304685 143.2099520304685 0 0 1 32.52640505743908,-5.419744124822728 L 32.39544275590369,-6.4111314737315865 A 144.2099520304685 144.2099520304685 0 0 0 24.471206027250748,-5.139073415689509 Z M 66.87563943652931,-6.807547377308822 L 66.76750453156025,-5.8134111480488 A 143.2099520304685 143.2099520304685 0 0 1 74.66375474257396,-4.731429017805876 L 74.17393728716114,-1.771685978220697 L 81.65145807750818,-4.081812128440161 L 75.31684468312439,-8.677753070586114 L 74.82702722771157,-5.718010031000935 A 144.2099520304685 144.2099520304685 0 0 0 66.87563943652931,-6.807547377308822"/><text text-anchor="middle" pointer-events="none" font-size="8px" fill="#000000" x="49.629398003836215" y="-4.143664692462835" transform="rotate(180 49.629398003836215 -7.143664692462835)" font-family="sans-serif">FLIGHT</text></g><g class="relationship" transform="translate(158.7720371755066 59.415071985076935) rotate(187.30167471348256)"><path class="outline" fill="#A5ABB6" stroke="none" d="M 25 0.5 L 32.43533545369233 0.5 L 32.43533545369233 -0.5 L 25 -0.5 Z M 66.88064795369233 0.5 L 74.31598340738466 0.5 L 74.31598340738466 3.5 L 81.31598340738466 0 L 74.31598340738466 -3.5 L 74.31598340738466 -0.5 L 66.88064795369233 -0.5 Z"/><text text-anchor="middle" pointer-events="none" font-size="8px" fill="#000000" x="49.65799170369233" y="3" transform="rotate(180 49.65799170369233 0)" font-family="sans-serif">FLIGHT</text></g><g class="relationship" transform="translate(158.7720371755066 59.415071985076935) rotate(187.30167471348256)"><path class="outline" fill="#A5ABB6" stroke="none" d="M 24.471206027250748,5.139073415689509 L 24.657117634413662,4.15650694245622 A 143.2099520304685 143.2099520304685 0 0 0 32.52640505743909,5.419744124822728 L 32.3954427559037,6.4111314737315865 A 144.2099520304685 144.2099520304685 0 0 1 24.471206027250748,5.139073415689509 Z M 66.87563943652928,6.807547377308822 L 66.76750453156022,5.8134111480488 A 143.2099520304685 143.2099520304685 0 0 0 74.66375474257396,4.731429017805876 L 74.17393728716114,1.771685978220697 L 81.65145807750818,4.081812128440161 L 75.31684468312439,8.677753070586114 L 74.82702722771157,5.718010031000935 A 144.2099520304685 144.2099520304685 0 0 1 66.87563943652928,6.807547377308822"/><text text-anchor="middle" pointer-events="none" font-size="8px" fill="#000000" x="49.629398003836215" y="10.143664692462835" transform="rotate(180 49.629398003836215 7.143664692462835)" font-family="sans-serif">FLIGHT</text></g><g class="relationship" transform="translate(158.7720371755066 59.415071985076935) rotate(187.30167471348256)"><path class="outline" fill="#A5ABB6" stroke="none" d="M 23.08917320392191,9.598962483481976 L 23.454514228288303,8.668088734837774 A 76.16718050783801 76.16718050783801 0 0 0 32.63652505288813,11.615934120929865 L 32.39173477969015,12.585510173721843 A 77.16718050783801 77.16718050783801 0 0 1 23.08917320392191,9.598962483481976 Z M 66.76199958602646,13.364526734956925 L 66.5613898254258,12.384855502373384 A 76.16718050783801 76.16718050783801 0 0 0 75.8675312115214,9.856051890905968 L 74.89916054047355,7.016640289278913 L 82.6542200604925,8.06975559206548 L 77.15869210625188,13.64193402640871 L 76.19032143520403,10.802522424781655 A 77.16718050783801 77.16718050783801 0 0 1 66.76199958602646,13.364526734956925"/><text text-anchor="middle" pointer-events="none" font-size="8px" fill="#000000" x="49.54426214024618" y="17.413555199725053" transform="rotate(180 49.54426214024618 14.413555199725053)" font-family="sans-serif">FLIGHT</text></g><g class="relationship" transform="translate(158.7720371755066 59.415071985076935) rotate(187.30167471348256)"><path class="outline" fill="#A5ABB6" stroke="none" d="M 20.90208894244944,13.724164012497553 L 21.434121018964774,12.87743981326927 A 56.10073203602565 56.10073203602565 0 0 0 32.707509445627466,18.312334268144 L 32.376426412333586,19.2559358922762 A 57.10073203602565 57.10073203602565 0 0 1 20.90208894244944,13.724164012497553 Z M 66.57344598435759,20.39059301497098 L 66.30563968028801,19.427120242392235 A 56.10073203602565 56.10073203602565 0 0 0 77.91449635923516,14.75145868901774 L 76.49029107271534,12.111072485855598 L 84.31276504770014,11.86837738766518 L 79.8134367412616,18.271973626567263 L 78.38923145474178,15.63158742340512 A 57.10073203602565 57.10073203602565 0 0 1 66.57344598435759,20.39059301497098"/><text text-anchor="middle" pointer-events="none" font-size="8px" fill="#000000" x="49.40453057792598" y="24.94519391699447" transform="rotate(180 49.40453057792598 21.94519391699447)" font-family="sans-serif">FLIGHT</text></g><g class="relationship" transform="translate(158.7720371755066 59.415071985076935) rotate(187.30167471348256)"><path class="outline" fill="#A5ABB6" stroke="none" d="M 17.9862104268602,17.370844380187897 L 18.666383164631117,16.637792508358068 A 47.951240916209045 47.951240916209045 0 0 0 32.68974448307677,25.687359637567923 L 32.30202218142596,26.609135866813716 A 48.951240916209045 48.951240916209045 0 0 1 17.9862104268602,17.370844380187897 Z M 66.34349153881735,28.063441966951366 L 66.03579797929191,27.111956458167043 A 47.951240916209045 47.951240916209045 0 0 0 80.77987883211219,19.291380539524518 L 78.9343560704258,16.926207028744066 L 86.60620415088096,15.379356347386395 L 83.24057584769402,22.444945220565117 L 81.39505308600764,20.079771709784666 A 48.951240916209045 48.951240916209045 0 0 1 66.34349153881735,28.063441966951366"/><text text-anchor="middle" pointer-events="none" font-size="8px" fill="#000000" x="49.213481710096076" y="32.89413191208677" transform="rotate(180 49.213481710096076 29.89413191208677)" font-family="sans-serif">FLIGHT</text></g><g class="relationship" transform="translate(158.7720371755066 59.415071985076935) rotate(187.30167471348256)"><path class="outline" fill="#A5ABB6" stroke="none" d="M 14.44320574945421,20.411854586953456 L 15.247803529220876,19.818034401379958 A 44.78474506771666 44.78474506771666 0 0 0 32.560876490142476,33.908236559608206 L 32.14286286832387,34.81667731825683 A 45.78474506771666 45.78474506771666 0 0 1 14.44320574945421,20.411854586953456 Z M 66.09090936051828,36.54743629386277 L 65.76745229287505,35.601193446919325 A 44.78474506771666 44.78474506771666 0 0 0 84.42374254364614,23.344802204432057 L 82.20364064184376,21.32709371567223 L 89.5017460010528,18.500849181686476 L 87.38387841271599,26.035080189445157 L 85.1637765109136,24.01737170068533 A 45.78474506771666 45.78474506771666 0 0 1 66.09090936051828,36.54743629386277"/><text text-anchor="middle" pointer-events="none" font-size="8px" fill="#000000" x="48.975771487371084" y="41.449955737882256" transform="rotate(180 48.975771487371084 38.449955737882256)" font-family="sans-serif">FLIGHT</text></g><g class="relationship" transform="translate(158.7720371755066 59.415071985076935) rotate(187.30167471348256)"><path class="outline" fill="#A5ABB6" stroke="none" d="M 10.396609043987748,22.74116356711926 L 11.29757791189017,22.307279828001697 A 44.378816505968636 44.378816505968636 0 0 0 32.32387670739413,43.17792855413807 L 31.896699176236258,44.08209632445167 A 45.378816505968636 45.378816505968636 0 0 1 10.396609043987748,22.74116356711926 Z M 65.82078505223244,46.03861772701931 L 65.50038720597749,45.091334654165586 A 44.378816505968636 44.378816505968636 0 0 0 88.78665948799919,26.77634782656624 L 86.25131813849522,25.17258841770985 L 92.95132166691477,21.127844579199714 L 92.16711462067114,28.914693705041426 L 89.63177327116718,27.310934296185035 A 45.378816505968636 45.378816505968636 0 0 1 65.82078505223244,46.03861772701931"/><text text-anchor="middle" pointer-events="none" font-size="8px" fill="#000000" x="48.6974846829158" y="50.856396435789314" transform="rotate(180 48.6974846829158 47.856396435789314)" font-family="sans-serif">FLIGHT</text></g><g class="relationship" transform="translate(158.7720371755066 59.415071985076935) rotate(187.30167471348256)"><path class="outline" fill="#A5ABB6" stroke="none" d="M 5.987513214418485,24.277555179777966 L 6.953439040707552,24.018736134675446 A 45.89179596503352 45.89179596503352 0 0 0 31.99657363398288,53.78417000147581 L 31.576347405337724,54.691589373518674 A 46.89179596503352 46.89179596503352 0 0 1 5.987513214418485,24.277555179777966 Z M 65.53232568035305,56.81493666658305 L 65.22841717335415,55.86223544407219 A 45.89179596503352 45.89179596503352 0 0 0 93.78456808855535,29.448491134640644 L 91.00609381771936,28.317084608982206 L 96.88759569356436,23.15395225696644 L 97.48920044966998,30.957033168851893 L 94.710726178834,29.825626643193456 A 46.89179596503352 46.89179596503352 0 0 1 65.53232568035305,56.81493666658305"/><text text-anchor="middle" pointer-events="none" font-size="8px" fill="#000000" x="48.38617699726306" y="61.44242361812225" transform="rotate(180 48.38617699726306 58.44242361812225)" font-family="sans-serif">FLIGHT</text></g></g><g class="layer nodes"><g class="node" transform="translate(134.09017338105306,162.82318472970792)"><circle class="outline" cx="0" cy="0" r="25" fill="#ECB5C9" stroke="#da7298" stroke-width="2px"/><text text-anchor="middle" pointer-events="none" font-family="sans-serif" dy="1.5625" font-size="25" fill="#604A0E"/><text text-anchor="middle" pointer-events="none" y="5" font-size="10px" fill="#604A0E" font-family="sans-serif"> MSN</text></g><g class="node" transform="translate(158.7720371755066,59.415071985076935)"><circle class="outline" cx="0" cy="0" r="25" fill="#ECB5C9" stroke="#da7298" stroke-width="2px"/><text text-anchor="middle" pointer-events="none" font-family="sans-serif" dy="1.5625" font-size="25" fill="#604A0E"/><text text-anchor="middle" pointer-events="none" y="5" font-size="10px" fill="#604A0E" font-family="sans-serif"> ORD</text></g><g class="node" transform="translate(53.31819897837221,45.90299082147041)"><circle class="outline" cx="0" cy="0" r="25" fill="#ECB5C9" stroke="#da7298" stroke-width="2px"/><text text-anchor="middle" pointer-events="none" font-family="sans-serif" dy="1.5625" font-size="25" fill="#604A0E"/><text text-anchor="middle" pointer-events="none" y="5" font-size="10px" fill="#604A0E" font-family="sans-serif"> GRR</text></g></g></svg>